<?xml version="1.0" encoding="utf-8"?>
<!-- Generator: Adobe Illustrator 27.3.1, SVG Export Plug-In . SVG Version: 6.00 Build 0)  -->
<svg version="1.1" id="Laag_1" xmlns="http://www.w3.org/2000/svg" xmlns:xlink="http://www.w3.org/1999/xlink" x="0px" y="0px"
	 viewBox="0 0 29.2 100" style="enable-background:new 0 0 29.2 100;" xml:space="preserve">
<style type="text/css">
	.st0{fill:#FFFFFF;}
</style>
<path class="st0" d="M10.4,100H2.1C0.9,100,0,99.1,0,97.9s0.9-2.1,2.1-2.1h8.3c1.1,0,2.1-0.9,2.1-2.1V6.3c0-1.2-0.9-2.1-2.1-2.1H2.1
	C0.9,4.2,0,3.2,0,2.1S0.9,0,2.1,0h8.3c3.5,0,6.3,2.8,6.3,6.3v87.5C16.7,97.2,13.9,100,10.4,100L10.4,100z"/>
<path class="st0" d="M27.1,100h-8.3c-3.5,0-6.3-2.8-6.3-6.3V6.3c0-3.5,2.8-6.3,6.3-6.3h8.3c1.1,0,2.1,0.9,2.1,2.1s-0.9,2.1-2.1,2.1
	h-8.3c-1.1,0-2.1,0.9-2.1,2.1v87.5c0,1.2,0.9,2.1,2.1,2.1h8.3c1.1,0,2.1,0.9,2.1,2.1S28.2,100,27.1,100L27.1,100z"/>
</svg>
